HIERARCHY
ROOT Hips
{
	OFFSET -0.001795 -0.223333 0.028219
	CHANNELS 6 Xposition Yposition Zposition Zrotation Yrotation Xrotation 
	JOINT LeftUpLeg
	{
		OFFSET 0.069520 -0.091406 -0.006815
		CHANNELS 3 Zrotation Yrotation Xrotation
		JOINT LeftLeg
		{
			OFFSET 0.034277 -0.375199 -0.004496
			CHANNELS 3 Zrotation Yrotation Xrotation
			JOINT LeftFoot
			{
				OFFSET -0.013596 -0.397961 -0.043693
				CHANNELS 3 Zrotation Yrotation Xrotation
				JOINT LeftToe
				{
					OFFSET 0.026358 -0.055791 0.119288
					CHANNELS 3 Zrotation Yrotation Xrotation
					End Site
					{
						OFFSET 0.000000 0.000000 0.000000
					}
				}
			}
		}
	}
	JOINT RightUpLeg
	{
		OFFSET -0.067670 -0.090522 -0.004320
		CHANNELS 3 Zrotation Yrotation Xrotation
		JOINT RightLeg
		{
			OFFSET -0.038290 -0.382569 -0.008850
			CHANNELS 3 Zrotation Yrotation Xrotation
			JOINT RightFoot
			{
				OFFSET 0.015774 -0.398415 -0.042312
				CHANNELS 3 Zrotation Yrotation Xrotation
				JOINT RightToe
				{
					OFFSET -0.025372 -0.048144 0.123348
					CHANNELS 3 Zrotation Yrotation Xrotation
					End Site
					{
						OFFSET 0.000000 0.000000 0.000000
					}
				}
			}
		}
	}
	JOINT Spine
	{
		OFFSET -0.002533 0.108963 -0.026696
		CHANNELS 3 Zrotation Yrotation Xrotation
		JOINT Spine1
		{
			OFFSET 0.005487 0.135180 0.001092
			CHANNELS 3 Zrotation Yrotation Xrotation
			JOINT Spine2
			{
				OFFSET 0.001457 0.052922 0.025425
				CHANNELS 3 Zrotation Yrotation Xrotation
				JOINT Neck
				{
					OFFSET -0.002778 0.213870 -0.042857
					CHANNELS 3 Zrotation Yrotation Xrotation
					JOINT Head
					{
						OFFSET 0.005152 0.064970 0.051349
						CHANNELS 3 Zrotation Yrotation Xrotation
						End Site
						{
							OFFSET 0.000000 0.000000 0.000000
						}
					}
				}
				JOINT LeftShoulder
				{
					OFFSET 0.078845 0.121749 -0.034090
					CHANNELS 3 Zrotation Yrotation Xrotation
					JOINT LeftArm
					{
						OFFSET 0.090977 0.030469 -0.008868
						CHANNELS 3 Zrotation Yrotation Xrotation
						JOINT LeftForeArm
						{
							OFFSET 0.259612 -0.012772 -0.027456
							CHANNELS 3 Zrotation Yrotation Xrotation
							JOINT LeftHand
							{
								OFFSET 0.249234 0.008986 -0.001171
								CHANNELS 3 Zrotation Yrotation Xrotation
								End Site
								{
									OFFSET 0.000000 0.000000 0.000000
								}
							}
						}
					}
				}
				JOINT RightShoulder
				{
					OFFSET -0.081759 0.118833 -0.038615
					CHANNELS 3 Zrotation Yrotation Xrotation
					JOINT RightArm
					{
						OFFSET -0.096012 0.032551 -0.009143
						CHANNELS 3 Zrotation Yrotation Xrotation
						JOINT RightForeArm
						{
							OFFSET -0.253742 -0.013329 -0.021401
							CHANNELS 3 Zrotation Yrotation Xrotation
							JOINT RightHand
							{
								OFFSET -0.255298 0.007772 -0.005559
								CHANNELS 3 Zrotation Yrotation Xrotation
								End Site
								{
									OFFSET 0.000000 0.000000 0.000000
								}
							}
						}
					}
				}
			}
		}
	}
}
MOTION
Frames: 11
Frame Time: 0.050000
-0.340225 0.927733 2.602089 -17.646741 67.043120 -16.373223 -2.289040 -0.730658 9.561828 0.367989 -1.923025 14.219321 -9.368030 -6.504407 8.581671 0.000000 0.000000 0.000000 9.394304 -0.466587 -26.830645 3.776149 -2.787847 10.135849 0.917844 4.023412 26.271301 0.000000 0.000000 0.000000 9.852118 -6.744539 21.909206 -14.394219 1.773108 -28.179210 5.531857 -0.606925 31.972262 9.639931 4.154002 -32.897677 0.000000 0.000000 0.000000 -24.814986 -11.559699 -12.067119 -42.669734 -2.535442 -1.770461 -22.995007 -41.614304 5.516078 0.000000 0.000000 0.000000 25.183970 -14.743167 1.402829 59.707751 13.124751 -2.677050 1.172548 35.828068 5.907741 0.000000 0.000000 0.000000 
-0.283392 0.921819 2.627737 -15.334324 67.959457 -14.571178 -1.867018 -1.139278 11.655766 -1.704565 -2.533035 17.960194 -12.696468 -6.663765 13.128673 0.000000 0.000000 0.000000 9.438555 -0.422976 -26.367635 3.365985 -3.449835 13.220286 -3.689306 -1.705566 25.544156 0.000000 0.000000 0.000000 11.548365 -6.947743 20.916058 -16.968865 1.152866 -29.321402 6.670043 -2.859594 31.940297 6.414542 5.376801 -32.271223 0.000000 0.000000 0.000000 -25.739853 -9.331878 -12.583078 -43.286742 -0.559431 -2.979933 -22.071940 -39.246657 5.375709 0.000000 0.000000 0.000000 25.191638 -13.887920 1.477883 57.061917 12.947066 -3.542090 1.259988 31.959131 4.599749 0.000000 0.000000 0.000000 
-0.224022 0.918171 2.654845 -12.875491 69.333155 -13.246386 -0.503377 -1.216966 10.342069 -5.549782 -4.684399 27.372796 -17.257952 -4.654394 22.827344 0.000000 0.000000 0.000000 10.459298 0.037186 -24.597438 -1.256643 -3.372093 18.721310 -4.579256 -3.656771 18.902127 0.000000 0.000000 0.000000 13.194152 -6.473633 18.417655 -15.435474 1.787742 -27.428921 4.569822 -2.523219 31.443031 6.551787 5.524148 -32.155181 0.000000 0.000000 0.000000 -26.687917 -9.484546 -13.642588 -43.208102 1.557092 -3.370604 -22.798702 -37.211870 5.337184 0.000000 0.000000 0.000000 25.597207 -14.861382 1.039750 55.896726 12.677783 -3.582310 1.131324 29.077903 3.850511 0.000000 0.000000 0.000000 
-0.167628 0.921206 2.684267 -13.821608 69.545160 -15.141148 3.472387 -1.120692 3.961613 -14.500277 -7.955512 42.580663 -15.479926 1.136822 31.527358 0.000000 0.000000 0.000000 12.481023 0.924445 -21.297373 -4.220068 -3.666739 22.448485 -4.621349 -4.868700 14.561650 0.000000 0.000000 0.000000 14.185584 -6.121585 16.787152 -15.540793 1.869481 -26.959512 4.935684 -2.185093 31.121177 6.965978 5.407812 -30.879589 0.000000 0.000000 0.000000 -25.502645 -9.044786 -13.502298 -44.006495 2.771937 -4.118527 -22.641088 -35.022657 4.766109 0.000000 0.000000 0.000000 28.160222 -16.228463 0.839491 52.290123 13.398351 -4.372492 4.011546 27.064947 3.901168 0.000000 0.000000 0.000000 
-0.116546 0.929146 2.714210 -12.546477 68.792732 -14.776065 5.159815 -0.968259 -3.529974 -21.714245 -9.219831 52.994918 -10.881580 7.055478 39.891619 0.000000 0.000000 0.000000 12.993755 1.488386 -16.604017 -4.424696 -3.894854 22.881622 -4.456105 -5.278157 13.006342 0.000000 0.000000 0.000000 13.912170 -5.763533 16.417583 -14.836740 2.082734 -26.679031 5.153513 -0.992036 31.123734 7.930143 4.995664 -30.067243 0.000000 0.000000 0.000000 -25.444119 -8.452747 -14.026671 -43.711305 3.671261 -4.448499 -23.154323 -34.027471 4.813099 0.000000 0.000000 0.000000 29.734302 -16.585080 1.368709 50.986891 13.459292 -5.037602 4.704311 25.112078 3.533581 0.000000 0.000000 0.000000 
-0.069264 0.938091 2.743031 -9.640107 67.142669 -12.826788 5.767231 -1.371861 -10.515368 -24.758851 -8.690320 55.800198 -1.188882 15.045875 41.442487 0.000000 0.000000 0.000000 12.469118 1.551786 -9.773059 -2.845036 -3.148297 18.939070 -4.230257 -5.535663 11.975430 0.000000 0.000000 0.000000 12.729125 -5.071799 16.095711 -14.828651 2.010133 -27.256392 6.298330 0.862751 32.288632 8.876684 4.911013 -31.088915 0.000000 0.000000 0.000000 -25.013315 -7.943140 -14.555599 -42.836826 3.641729 -4.390754 -22.600966 -32.533737 4.461508 0.000000 0.000000 0.000000 31.382082 -17.184800 1.863657 48.521266 15.343966 -5.231091 5.646523 26.157791 3.912899 0.000000 0.000000 0.000000 
-0.023960 0.945682 2.770569 -6.060333 63.951885 -10.259947 4.883309 -2.044246 -15.739010 -18.803771 -8.492614 49.583626 11.592429 24.007043 19.025251 0.000000 0.000000 0.000000 12.151367 0.916587 -3.317389 -3.074856 -1.801905 15.393856 -3.109592 -3.782088 11.709626 0.000000 0.000000 0.000000 11.245813 -4.455209 16.141976 -13.921759 2.432338 -26.401551 6.622474 3.288710 32.022302 10.627955 4.024553 -31.156819 0.000000 0.000000 0.000000 -24.851369 -7.208119 -14.951562 -41.726920 4.016791 -4.318791 -23.159355 -32.255224 4.619299 0.000000 0.000000 0.000000 31.043412 -17.604588 1.596765 50.235584 16.758393 -4.412392 4.745830 26.735352 4.030513 0.000000 0.000000 0.000000 
0.020745 0.948370 2.797014 -2.922150 59.001924 -8.321383 4.707306 -2.368345 -17.772782 -7.143153 -5.601559 32.518306 6.466705 17.274117 12.298458 0.000000 0.000000 0.000000 10.572365 -0.254872 2.724763 -3.055740 -0.872473 12.782125 -0.824637 0.109585 10.809907 0.000000 0.000000 0.000000 10.472688 -4.391934 17.233380 -15.400305 2.312618 -27.831372 8.929297 5.620849 32.838566 10.018684 4.171921 -31.205634 0.000000 0.000000 0.000000 -25.567282 -6.697809 -15.091263 -40.477168 4.982106 -4.467410 -21.637108 -32.100744 4.455472 0.000000 0.000000 0.000000 31.217920 -17.155057 1.736577 49.622460 18.342413 -4.113744 4.933089 29.457539 4.795168 0.000000 0.000000 0.000000 
0.065756 0.945427 2.822948 -1.120353 52.895439 -6.294870 4.955148 -2.372666 -18.288422 1.371007 -1.592357 12.729700 -6.950175 5.096220 18.641911 0.000000 0.000000 0.000000 9.818765 -1.283135 6.669734 -5.683734 0.386443 11.382394 1.799592 4.885041 8.580767 0.000000 0.000000 0.000000 9.353577 -3.765669 16.874121 -14.385967 2.324053 -28.800464 9.673707 7.698065 34.948248 11.044616 3.627276 -32.557454 0.000000 0.000000 0.000000 -25.758403 -5.372785 -15.687120 -40.295285 5.677573 -4.727397 -19.014006 -32.320026 3.846178 0.000000 0.000000 0.000000 30.364190 -17.092092 1.391529 50.788996 21.393096 -2.650456 1.630084 32.865326 5.118814 0.000000 0.000000 0.000000 
0.112126 0.938726 2.849262 0.715840 48.323322 -4.990880 4.239989 -1.956052 -16.448984 5.310101 -0.545443 2.894120 -15.587274 -2.247593 25.643672 0.000000 0.000000 0.000000 8.499918 -1.784129 8.692538 -8.316628 0.896751 14.625504 3.107146 7.422819 6.203788 0.000000 0.000000 0.000000 8.232501 -3.435826 17.258281 -13.313041 2.712589 -27.921166 9.383574 8.680724 33.932231 11.089439 3.082387 -32.477479 0.000000 0.000000 0.000000 -27.264345 -4.608150 -15.964628 -40.073261 7.512444 -5.146971 -16.976454 -32.602032 3.575068 0.000000 0.000000 0.000000 29.107148 -15.773542 1.312449 51.579571 22.078259 -1.651680 0.757616 35.741759 5.542181 0.000000 0.000000 0.000000 
0.161629 0.931388 2.875507 1.367635 41.806826 -5.790086 3.486571 -1.465143 -13.906234 7.276470 -1.211971 5.825010 -14.461946 -4.259060 22.602313 0.000000 0.000000 0.000000 6.118806 -2.342608 11.425484 -11.970211 1.862343 18.500426 7.224963 16.419920 5.326721 0.000000 0.000000 0.000000 7.155128 -3.220110 18.206550 -12.286225 2.488232 -29.731489 10.124808 10.169136 37.517772 12.869067 1.816455 -33.500815 0.000000 0.000000 0.000000 -28.195412 -4.466174 -15.698143 -40.627646 6.493990 -5.110227 -13.085304 -31.086885 2.593445 0.000000 0.000000 0.000000 28.304101 -13.819195 2.128473 50.841490 24.619873 -0.836699 0.390984 39.591269 6.292756 0.000000 0.000000 0.000000 
